<svg width="38" height="38" viewBox="0 0 38 38" fill="none" xmlns="http://www.w3.org/2000/svg">
<path d="M38 19C38 29.4934 29.4934 38 19 38C8.50659 38 0 29.4934 0 19C0 8.50657 8.50659 -1.47879e-05 19 -1.47879e-05C29.4934 -1.47879e-05 38 8.50657 38 19Z" fill="white"/>
<path d="M14.3437 18.267C13.9532 18.6575 13.9531 19.2907 14.3437 19.6812L20.7076 26.0452C21.0982 26.4357 21.7313 26.4357 22.1218 26.0452C22.5124 25.6547 22.5124 25.0215 22.1218 24.631L16.465 18.9741L22.1219 13.3173C22.5124 12.9267 22.5124 12.2936 22.1219 11.9031C21.7313 11.5125 21.0982 11.5125 20.7076 11.9031L14.3437 18.267ZM16.0508 17.9741L15.0508 17.9741L15.0508 19.9741L16.0508 19.9741L16.0508 17.9741Z" fill="#434343"/>
</svg>

