<svg width="24" height="24" viewBox="0 0 24 24" fill="none" xmlns="http://www.w3.org/2000/svg">
<path d="M24 12C24 18.6274 18.6274 24 12 24C5.37258 24 0 18.6274 0 12C0 5.37258 5.37258 0 12 0C18.6274 0 24 5.37258 24 12Z" fill="#555A7B"/>
<path d="M18.2338 16.0278C18.1949 15.735 18.0251 15.4826 17.7679 15.3353L14.7477 13.6047C14.3778 13.3927 13.9086 13.4544 13.6066 13.7549L13.0118 14.3469C12.8535 14.5045 12.603 14.5184 12.4293 14.3793C11.9603 14.0038 11.4986 13.5904 11.0569 13.1508C10.6152 12.7113 10.1999 12.2518 9.82252 11.785C9.68273 11.6121 9.69672 11.3629 9.85507 11.2053L10.4499 10.6133C10.7518 10.3129 10.8139 9.84592 10.6009 9.47771L8.86196 6.472C8.71389 6.21607 8.46028 6.04709 8.1661 6.00835C7.87189 5.96954 7.58282 6.06719 7.37299 6.27602L6.47662 7.1681C5.85101 7.79074 5.84097 8.92965 6.44833 10.3751C7.03235 11.7649 8.12223 13.2949 9.51716 14.6832C10.9121 16.0715 12.4495 17.1561 13.8461 17.7373C14.561 18.0349 15.2012 18.1835 15.7418 18.1835C16.2994 18.1835 16.7508 18.0253 17.0685 17.7091L17.9649 16.8171C18.1747 16.6082 18.2727 16.3205 18.2338 16.0278V16.0278ZM14.5499 13.9467L17.5701 15.6773C17.7194 15.7629 17.8181 15.9095 17.8406 16.0795C17.8596 16.2222 17.8224 16.3628 17.7379 16.476L13.7241 14.1962L13.8871 14.034C14.0624 13.8595 14.335 13.8236 14.5499 13.9467V13.9467ZM8.11406 6.39966C8.28495 6.42216 8.43225 6.52031 8.51823 6.66896L10.2572 9.67467C10.3809 9.88852 10.3448 10.1598 10.1695 10.3342L10.0198 10.4832L7.71642 6.50189C7.81058 6.4325 7.92319 6.39482 8.04059 6.39482C8.06494 6.39482 8.0895 6.39643 8.11406 6.39966V6.39966ZM16.788 17.43C16.291 17.9247 15.2745 17.9039 13.9991 17.3731C12.649 16.8113 11.157 15.7569 9.79764 14.4041C8.43833 13.0513 7.3788 11.5664 6.81424 10.2228C6.28086 8.95352 6.26005 7.94186 6.75708 7.44719L7.42251 6.78492L9.72932 10.7723L9.57462 10.9263C9.2728 11.2267 9.24651 11.7022 9.51351 12.0325C9.89978 12.5102 10.3247 12.9804 10.7764 13.43C11.2282 13.8795 11.7006 14.3024 12.1807 14.6868C12.5125 14.9525 12.9903 14.9264 13.2922 14.626L13.4334 14.4855L17.4527 16.7685L16.788 17.43V17.43Z" fill="white"/>
</svg>

